# xmcd
#
# Track frame offsets:
#	187
#	23815
#	41430
#	65030
#
# Disc length: 1101 seconds
#
# Revision: 1
# Processed by: cddbd v1.5PL3 Copyright (c) Steve Scherf et al.
# Submitted via: CDex 1.50Beta5
#
DISCID=2e044b04
DTITLE=酒井法子 - 笑顔が忘れられない
DYEAR=1993
DGENRE=Pop
TTITLE0=笑顔が忘れられない
TTITLE1=ふたつの輝き
TTITLE2=笑顔が忘れられない(Karaoke)
TTITLE3=ふたつの輝き(Karaoke)
EXTD=
EXTT0=
EXTT1=
EXTT2=
EXTT3=
PLAYORDER=
